<?xml version="1.0" standalone="no"?>
<!DOCTYPE svg PUBLIC "-//W3C//DTD SVG 20010904//EN"
 "http://www.w3.org/TR/2001/REC-SVG-20010904/DTD/svg10.dtd">
<svg version="1.0" xmlns="http://www.w3.org/2000/svg"
 width="1252.000000pt" height="1345.000000pt" viewBox="0 0 1252.000000 1345.000000"
 preserveAspectRatio="xMidYMid meet">

<g transform="translate(0.000000,1345.000000) scale(0.100000,-0.100000)"
fill="#000000" stroke="none">
<path d="M6168 10709 c-36 -52 -124 -184 -195 -294 -72 -110 -183 -281 -248
-380 -65 -99 -151 -230 -191 -292 l-73 -111 358 -539 c198 -296 372 -553 388
-572 l29 -34 86 119 c113 156 681 1016 681 1029 0 11 -709 1093 -746 1139
l-24 29 -65 -94z"/>
<path d="M1083 9993 c-68 -2 -123 -5 -123 -7 0 -9 88 -147 288 -453 l217 -333
1532 0 1532 0 69 -92 c88 -117 309 -445 351 -520 19 -33 28 -59 22 -62 -15
-10 -1115 -26 -1762 -26 -317 0 -603 -3 -635 -6 l-60 -6 250 -374 249 -374
1256 0 1256 0 920 -1400 920 -1400 457 0 c252 0 458 4 458 8 0 18 -386 611
-1460 2242 -1426 2166 -1810 2750 -1824 2779 l-17 31 -1887 -2 c-1038 -1
-1942 -4 -2009 -5z"/>
<path d="M7313 9715 c-103 -158 -338 -513 -522 -789 -184 -275 -352 -530 -374
-566 -22 -36 -46 -74 -53 -86 -12 -18 -10 -28 20 -90 40 -84 121 -216 291
-473 l128 -193 71 111 71 111 1255 0 1256 0 256 384 256 384 -1226 4 c-675 2
-1233 7 -1240 11 -10 7 -6 22 19 65 42 75 263 403 351 520 l69 92 1529 0 1529
0 234 353 c285 429 281 423 265 434 -7 4 -909 10 -2005 11 l-1991 4 -189 -287z"/>
<path d="M5653 7178 c-36 -41 -102 -140 -648 -973 -761 -1159 -815 -1243 -815
-1259 0 -3 206 -6 459 -6 l458 0 260 398 c143 218 374 572 512 785 l252 388
-23 37 c-114 188 -422 652 -432 652 -1 0 -12 -10 -23 -22z"/>
<path d="M6198 6208 c-13 -18 -61 -89 -105 -158 -44 -69 -195 -300 -335 -515
-363 -555 -488 -758 -488 -791 0 -39 639 -1052 888 -1408 l76 -108 24 28 c116
143 942 1440 942 1480 0 23 -23 63 -173 304 -279 446 -742 1144 -786 1184 -17
16 -19 15 -43 -16z"/>
</g>
</svg>
