<?xml version="1.0" standalone="no"?>
<!DOCTYPE svg PUBLIC "-//W3C//DTD SVG 20010904//EN"
 "http://www.w3.org/TR/2001/REC-SVG-20010904/DTD/svg10.dtd">
<svg version="1.0" xmlns="http://www.w3.org/2000/svg"
 width="1057.000000pt" height="770.000000pt" viewBox="0 0 1057.000000 770.000000"
 preserveAspectRatio="xMidYMid meet">

<g transform="translate(0.000000,770.000000) scale(0.100000,-0.100000)"
fill="#000000" stroke="none">
<path d="M5214 7537 c-39 -56 -118 -174 -174 -262 -57 -88 -197 -303 -312
-478 l-208 -318 79 -117 c43 -64 189 -283 324 -487 267 -403 353 -529 365
-532 14 -5 242 326 641 934 l133 203 -103 157 c-496 758 -658 1003 -666 1003
-5 0 -40 -46 -79 -103z"/>
<path d="M460 6839 c-239 -3 -436 -6 -438 -7 -4 -3 96 -162 301 -474 l202
-308 1530 0 1530 0 26 -33 c96 -120 371 -524 413 -605 10 -19 15 -37 11 -40
-3 -3 -43 -7 -88 -9 -271 -7 -745 -13 -1502 -19 -473 -3 -862 -8 -864 -10 -2
-1 108 -170 244 -373 l247 -371 1256 -2 1257 -3 70 -105 c39 -58 452 -687 919
-1398 l849 -1292 448 0 c260 0 450 4 453 9 6 9 -192 321 -509 804 -72 109
-179 273 -239 365 -61 92 -187 284 -281 427 -169 256 -297 451 -550 835 -70
107 -184 281 -253 385 -69 105 -186 282 -260 395 -74 113 -185 282 -247 375
-61 94 -170 258 -240 365 -71 107 -197 299 -280 425 -292 443 -382 580 -410
628 l-28 48 -1566 -3 c-861 -2 -1762 -6 -2001 -9z"/>
<path d="M6335 6504 c-125 -192 -375 -569 -554 -839 -179 -269 -336 -508 -348
-530 l-22 -41 36 -69 c19 -39 56 -104 81 -145 77 -127 324 -500 331 -500 3 0
36 47 74 105 l67 105 1258 1 1257 0 248 376 c137 206 247 376 245 378 -2 1
-520 6 -1153 10 -1348 9 -1291 8 -1301 17 -3 4 -1 21 6 38 26 63 307 477 403
593 l39 47 1524 0 1524 0 34 48 c61 84 446 666 461 696 8 16 14 31 12 32 -10
10 -346 13 -2078 20 l-1916 6 -228 -348z"/>
<path d="M4648 3937 c-40 -57 -180 -267 -311 -468 -131 -200 -389 -593 -573
-874 -401 -611 -501 -764 -509 -787 -7 -17 19 -18 451 -18 l459 1 41 62 c23
34 80 121 126 192 47 72 138 211 203 310 205 314 299 458 520 800 29 44 70
107 92 141 l40 61 -36 56 c-20 31 -72 113 -116 182 -130 206 -289 438 -302
442 -6 3 -45 -43 -85 -100z"/>
<path d="M5264 3058 c-12 -13 -57 -79 -101 -148 -44 -69 -199 -307 -345 -530
-355 -543 -488 -759 -488 -795 0 -17 158 -288 172 -293 4 -2 8 -8 8 -14 0 -10
239 -389 415 -658 56 -85 119 -182 140 -215 82 -131 218 -316 229 -312 21 7
305 427 547 810 41 65 107 170 148 235 156 245 261 425 261 445 0 27 -48 111
-194 342 -242 384 -688 1058 -743 1123 l-28 34 -21 -24z"/>
</g>
</svg>
