<svg xmlns="http://www.w3.org/2000/svg" width="1057" height="770" viewBox="0 0 1057 770" version="1.1"><path d="M 525.073 8.728 C 523.383 10.778, 522 12.991, 522 13.645 C 522 14.298, 521.643 14.983, 521.207 15.167 C 520.470 15.477, 509 31.756, 509 32.492 C 509 32.783, 503.914 40.733, 500.999 45 C 497.016 50.828, 484.397 70.162, 482.645 73.120 C 481.465 75.110, 477.388 81.410, 473.585 87.120 C 459.168 108.762, 454 116.892, 454 117.929 C 454 118.518, 453.598 119, 453.107 119 C 452.616 119, 451.927 119.748, 451.576 120.661 C 451.146 121.784, 455.244 128.832, 464.219 142.404 C 498.600 194.389, 523.138 230.813, 525.927 234 L 528.989 237.500 531.519 234.500 C 536.688 228.373, 548.995 210.755, 566.100 185 C 599.185 135.183, 607 123.157, 607 122.064 C 607 121.462, 601.884 113.214, 595.631 103.735 C 574.644 71.921, 547.475 30.556, 543.470 24.319 C 534.751 10.745, 530.562 5, 529.383 5 C 528.702 5, 526.763 6.678, 525.073 8.728 M 202.500 84.734 C 288.095 85.414, 404.762 85.423, 404.346 84.750 C 404.091 84.338, 351.146 84.106, 286.691 84.236 C 222.236 84.366, 184.350 84.590, 202.500 84.734 M 713.827 84.750 C 745.907 84.896, 798.107 84.896, 829.827 84.750 C 861.547 84.603, 835.300 84.483, 771.500 84.484 C 707.700 84.484, 681.747 84.603, 713.827 84.750 M 361.768 233.725 C 363.565 233.947, 366.265 233.943, 367.768 233.715 C 369.271 233.486, 367.800 233.304, 364.500 233.310 C 361.200 233.315, 359.971 233.502, 361.768 233.725 M 715.250 233.739 C 718.413 233.937, 723.587 233.937, 726.750 233.739 C 729.913 233.541, 727.325 233.378, 721 233.378 C 714.675 233.378, 712.087 233.541, 715.250 233.739 M 268.292 234.742 C 272.027 234.935, 277.877 234.934, 281.292 234.739 C 284.706 234.545, 281.650 234.387, 274.500 234.389 C 267.350 234.390, 264.556 234.550, 268.292 234.742 M 552.642 239.485 C 550.639 242.501, 549 245.306, 549 245.717 C 549 246.410, 551.109 243.480, 555.454 236.750 C 556.431 235.238, 557.017 234, 556.757 234 C 556.496 234, 554.644 236.468, 552.642 239.485 M 398.727 474.249 C 393.903 481.421, 390.118 487.451, 390.317 487.651 C 390.517 487.850, 394.608 482.116, 399.409 474.909 C 404.210 467.702, 407.995 461.671, 407.819 461.507 C 407.644 461.344, 403.552 467.077, 398.727 474.249 M 526.126 462.348 C 525.510 463.090, 518.500 473.777, 510.546 486.098 C 502.593 498.419, 494.216 511.200, 491.931 514.500 C 489.645 517.800, 484.563 525.469, 480.637 531.543 C 476.712 537.617, 469.857 548.192, 465.405 555.043 C 453.804 572.897, 440 594.886, 440 595.513 C 440 595.808, 438.200 598.899, 436 602.383 C 433.800 605.866, 432 609.762, 432 611.040 C 432 614.431, 450.002 643.929, 487.814 702.500 C 502.789 725.696, 523 755.913, 526.909 760.951 C 528.544 763.057, 529.038 763.213, 530.427 762.060 C 532.142 760.637, 563.761 713.541, 578.012 691.183 C 582.680 683.859, 587.860 675.759, 589.522 673.183 C 599.340 657.968, 619.813 624.646, 623.198 618.371 L 627.173 611.001 623.423 604.251 C 621.360 600.538, 619.376 597.275, 619.013 597 C 618.651 596.725, 618.095 595.793, 617.777 594.930 C 616.214 590.672, 560.936 505.426, 541.154 476.765 C 529.814 460.336, 528.691 459.258, 526.126 462.348 M 334.500 591.506 C 336.767 592.296, 347.844 592.557, 347.382 591.810 C 347.107 591.364, 343.871 591.036, 340.191 591.079 C 336.511 591.122, 333.950 591.315, 334.500 591.506 M 710.784 591.738 C 713.689 591.941, 718.189 591.939, 720.784 591.734 C 723.378 591.528, 721 591.363, 715.500 591.365 C 710 591.368, 707.878 591.536, 710.784 591.738" stroke="none" fill="#950606" fill-rule="evenodd"/><path d="M 7.316 85.743 C 2.902 86.047, 2.154 86.390, 2.279 88.050 C 2.360 89.122, 2.806 90, 3.272 90 C 3.737 90, 3.838 90.453, 3.496 91.007 C 3.153 91.561, 3.574 92.283, 4.431 92.612 C 5.288 92.941, 5.750 93.596, 5.458 94.068 C 5.166 94.541, 5.731 95.768, 6.714 96.797 C 7.696 97.825, 8.648 99.304, 8.829 100.083 C 9.210 101.725, 14.036 108.340, 15.215 108.835 C 15.654 109.020, 15.756 109.586, 15.443 110.092 C 15.130 110.599, 15.574 111.283, 16.431 111.612 C 17.288 111.941, 17.738 112.616, 17.431 113.112 C 17.124 113.608, 17.574 114.283, 18.431 114.612 C 19.288 114.941, 19.769 115.565, 19.500 116 C 19.231 116.435, 19.712 117.059, 20.569 117.388 C 21.426 117.717, 21.845 118.442, 21.500 119 C 21.155 119.558, 21.577 120.284, 22.437 120.614 C 23.296 120.944, 24 121.841, 24 122.607 C 24 123.373, 24.450 124, 25 124 C 25.550 124, 26 124.685, 26 125.521 C 26 127.431, 30.944 135, 32.192 135 C 32.701 135, 32.838 135.453, 32.496 136.007 C 32.153 136.561, 32.574 137.283, 33.431 137.612 C 34.288 137.941, 34.738 138.616, 34.431 139.112 C 34.124 139.608, 34.574 140.283, 35.431 140.612 C 36.288 140.941, 36.780 141.547, 36.525 141.960 C 36.269 142.373, 37.735 144.666, 39.780 147.056 C 41.826 149.447, 43.275 151.522, 43 151.669 C 42.725 151.815, 43.392 152.962, 44.482 154.218 C 45.572 155.473, 46.356 156.850, 46.223 157.278 C 46.090 157.706, 46.658 158.315, 47.485 158.633 C 48.312 158.950, 48.738 159.616, 48.431 160.112 C 48.124 160.608, 48.574 161.283, 49.431 161.612 C 50.288 161.941, 50.771 162.561, 50.505 162.991 C 48.715 165.888, 54.769 165.996, 205.152 165.749 L 357.601 165.500 361.024 170.171 C 362.906 172.740, 364.748 174.655, 365.118 174.427 C 365.802 174.004, 367.427 176.948, 367.185 178.172 C 367.112 178.542, 368.331 180.213, 369.894 181.887 C 371.458 183.561, 372.567 185.100, 372.358 185.308 C 372.150 185.516, 373.211 186.995, 374.715 188.593 C 376.220 190.192, 377.365 191.789, 377.261 192.143 C 377.157 192.496, 378.276 194.071, 379.748 195.643 C 381.220 197.214, 382.509 199.029, 382.613 199.675 C 382.886 201.380, 388.954 210, 389.881 210 C 390.313 210, 390.667 210.576, 390.667 211.281 C 390.667 212.979, 393.991 218, 395.115 218 C 395.602 218, 395.921 218.338, 395.825 218.750 C 395.448 220.372, 398.357 224.900, 399.396 224.308 C 400.003 223.962, 400.180 224.034, 399.790 224.466 C 399.399 224.899, 399.737 226.524, 400.540 228.077 C 401.343 229.630, 402 231.321, 402 231.835 C 402 233.257, 291.891 235.086, 204.453 235.116 C 178.211 235.125, 157.781 235.527, 156.953 236.050 C 155.956 236.681, 155.893 236.974, 156.750 236.985 C 157.438 236.993, 158 237.445, 158 237.989 C 158 238.532, 158.679 239.770, 159.508 240.739 C 160.338 241.707, 160.920 242.725, 160.801 243 C 160.449 243.817, 169.097 256.346, 171.387 258.337 C 172.549 259.347, 172.825 259.876, 172 259.513 C 171.175 259.149, 171.374 259.560, 172.441 260.426 C 173.509 261.292, 174.498 262.787, 174.639 263.749 C 174.781 264.711, 175.800 266.230, 176.905 267.125 C 178.011 268.019, 178.645 269.022, 178.314 269.352 C 177.984 269.683, 178.451 270.236, 179.351 270.581 C 180.252 270.927, 180.738 271.616, 180.431 272.112 C 180.124 272.608, 180.574 273.283, 181.431 273.612 C 182.288 273.941, 182.738 274.616, 182.431 275.112 C 182.124 275.608, 182.574 276.283, 183.431 276.612 C 184.288 276.941, 184.769 277.565, 184.500 278 C 184.231 278.435, 184.712 279.059, 185.569 279.388 C 186.426 279.717, 186.857 280.423, 186.527 280.956 C 186.197 281.490, 186.956 282.956, 188.214 284.214 C 189.471 285.471, 190.556 286.837, 190.625 287.250 C 190.694 287.662, 190.806 288.477, 190.875 289.059 C 190.944 289.641, 191.360 289.896, 191.800 289.624 C 192.240 289.352, 193.173 290.047, 193.874 291.169 C 194.765 292.596, 194.793 292.990, 193.968 292.480 C 193.319 292.079, 195.996 296.532, 199.917 302.376 L 207.045 313 333.522 313 C 445.280 313, 460 313.175, 460 314.500 C 460 315.325, 460.477 316, 461.059 316 C 461.641 316, 461.857 316.422, 461.538 316.939 C 461.219 317.455, 461.610 318.242, 462.408 318.689 C 463.820 319.479, 464 319.860, 464 322.059 C 464 322.641, 464.450 322.840, 465 322.500 C 465.550 322.160, 466.014 322.696, 466.032 323.691 C 466.071 325.900, 468.449 329.217, 469.349 328.318 C 469.916 327.750, 470.339 329.590, 469.793 330.250 C 469.477 330.632, 477.445 342.113, 480.334 345.438 C 481.738 347.053, 482.689 348.694, 482.449 349.083 C 482.208 349.472, 482.712 350.059, 483.569 350.388 C 484.426 350.717, 484.845 351.442, 484.500 352 C 484.155 352.558, 484.574 353.283, 485.431 353.612 C 486.288 353.941, 486.738 354.616, 486.431 355.112 C 486.124 355.608, 486.502 356.255, 487.270 356.550 C 488.038 356.845, 488.676 357.629, 488.686 358.293 C 488.708 359.637, 499.865 376.723, 502.332 379.189 C 503.197 380.054, 503.637 381.030, 503.309 381.357 C 502.982 381.685, 503.451 382.236, 504.351 382.581 C 505.252 382.927, 505.738 383.616, 505.431 384.112 C 505.124 384.608, 505.577 385.284, 506.437 385.614 C 507.296 385.944, 508 386.841, 508 387.607 C 508 388.373, 508.375 389, 508.833 389 C 509.292 389, 509.667 389.576, 509.667 390.281 C 509.667 392.105, 513.029 397, 514.282 397 C 514.860 397, 515.035 397.298, 514.671 397.662 C 514.020 398.313, 518.390 404.799, 520.447 406.235 C 521.026 406.639, 521.141 406.976, 520.702 406.985 C 519.674 407.004, 525.935 416.241, 527.702 417.311 C 528.439 417.758, 528.779 418.548, 528.458 419.069 C 528.136 419.589, 528.574 420.283, 529.431 420.612 C 530.288 420.941, 530.769 421.565, 530.500 422 C 530.231 422.435, 530.684 423.048, 531.506 423.364 C 532.328 423.679, 533 424.878, 533 426.028 C 533 427.177, 533.450 427.840, 534 427.500 C 534.550 427.160, 535 427.590, 535 428.456 C 535 430.255, 541.890 441, 543.044 441 C 543.462 441, 544.275 442.350, 544.850 444 C 545.425 445.650, 546.396 447, 547.007 447 C 547.618 447, 547.838 447.453, 547.496 448.007 C 547.153 448.561, 547.574 449.283, 548.431 449.612 C 549.288 449.941, 549.769 450.565, 549.500 451 C 549.231 451.435, 549.712 452.059, 550.569 452.388 C 551.426 452.717, 551.845 453.442, 551.500 454 C 551.155 454.558, 551.574 455.283, 552.431 455.612 C 553.288 455.941, 553.757 456.585, 553.473 457.043 C 553.190 457.502, 553.755 458.341, 554.729 458.908 C 555.703 459.475, 556.050 459.960, 555.500 459.985 C 554.950 460.010, 555.175 460.457, 556 460.979 C 556.825 461.500, 557.556 462.393, 557.625 462.964 C 557.694 463.534, 557.806 464.477, 557.875 465.059 C 557.944 465.641, 558.450 465.840, 559 465.500 C 559.550 465.160, 560 465.584, 560 466.441 C 560 467.298, 560.450 468, 561 468 C 561.550 468, 562 468.565, 562 469.255 C 562 470.997, 569.084 482, 570.205 482 C 570.707 482, 570.840 482.450, 570.500 483 C 570.160 483.550, 570.359 484, 570.941 484 C 571.523 484, 572 484.653, 572 485.450 C 572 486.248, 572.787 487.359, 573.750 487.920 C 574.712 488.481, 575.184 488.953, 574.798 488.970 C 574.412 488.986, 575.191 490.182, 576.529 491.626 C 577.867 493.070, 578.736 494.617, 578.460 495.064 C 578.184 495.511, 578.755 496.341, 579.729 496.908 C 580.703 497.475, 581.050 497.960, 580.500 497.985 C 579.950 498.010, 580.143 498.438, 580.930 498.935 C 581.716 499.433, 582.455 500.493, 582.572 501.291 C 582.869 503.312, 586.043 508, 587.115 508 C 587.602 508, 587.915 508.337, 587.812 508.750 C 587.514 509.935, 592.092 517, 593.158 517 C 593.686 517, 593.891 517.368, 593.613 517.818 C 593.334 518.268, 594.208 519.823, 595.554 521.274 C 596.899 522.725, 598 524.382, 598 524.956 C 598 525.530, 598.477 526, 599.059 526 C 599.641 526, 599.869 526.403, 599.565 526.895 C 599.260 527.388, 599.712 528.059, 600.569 528.388 C 601.426 528.717, 601.845 529.442, 601.500 530 C 601.155 530.558, 601.574 531.283, 602.431 531.612 C 603.288 531.941, 603.738 532.616, 603.431 533.112 C 603.124 533.608, 603.502 534.255, 604.270 534.550 C 605.038 534.845, 605.667 535.651, 605.667 536.341 C 605.667 537.032, 608.104 541.117, 611.083 545.419 C 614.063 549.721, 617.087 554.312, 617.805 555.621 C 618.522 556.929, 619.561 558, 620.114 558 C 620.666 558, 620.838 558.453, 620.496 559.007 C 620.153 559.561, 620.574 560.283, 621.431 560.612 C 622.288 560.941, 622.738 561.616, 622.431 562.112 C 622.124 562.608, 622.574 563.283, 623.431 563.612 C 624.288 563.941, 624.757 564.585, 624.473 565.043 C 624.190 565.502, 624.755 566.323, 625.729 566.868 C 626.703 567.413, 627.388 568.116, 627.250 568.430 C 626.600 569.913, 627.118 571.045, 628.155 570.405 C 628.856 569.971, 629.038 570.129, 628.618 570.809 C 628.238 571.424, 628.806 572.806, 629.880 573.880 C 630.954 574.954, 631.581 576.085, 631.274 576.393 C 630.966 576.701, 631.451 577.236, 632.351 577.581 C 633.252 577.927, 633.775 578.556, 633.513 578.979 C 633.251 579.402, 634.142 580.941, 635.493 582.398 C 636.844 583.855, 637.868 585.149, 637.770 585.274 C 637.672 585.398, 638.471 586.527, 639.546 587.782 C 640.621 589.038, 641.500 590.613, 641.500 591.282 C 641.500 592.215, 650.056 592.530, 678 592.630 C 698.763 592.704, 712.560 592.417, 710 591.964 C 707.095 591.450, 710.553 591.280, 719.751 591.487 C 727.589 591.663, 734.194 591.494, 734.430 591.113 C 734.666 590.731, 733.544 588.412, 731.936 585.960 C 730.329 583.507, 728.448 580.600, 727.757 579.500 C 727.066 578.400, 726.275 577.275, 726 577 C 725.116 576.116, 723.023 572.565, 722.022 570.250 C 721.487 569.013, 720.597 568, 720.044 568 C 719.491 568, 718.756 566.875, 718.411 565.500 C 718.066 564.125, 717.415 563, 716.964 563 C 716.513 563, 715.351 561.200, 714.380 559 C 713.409 556.800, 712.252 555, 711.808 555 C 711.363 555, 711 554.325, 711 553.500 C 711 552.675, 710.590 552, 710.089 552 C 709.588 552, 708.192 549.962, 706.986 547.471 C 705.780 544.980, 703.270 541.118, 701.407 538.889 C 699.545 536.660, 697.142 532.848, 696.067 530.418 C 694.992 527.988, 693.637 526, 693.056 526 C 692.475 526, 692.104 525.663, 692.232 525.250 C 692.360 524.837, 691.572 523.473, 690.482 522.218 C 689.392 520.962, 688.500 519.580, 688.500 519.146 C 688.500 518.712, 687.712 517.570, 686.750 516.607 C 685.787 515.645, 684.982 514.327, 684.959 513.679 C 684.937 513.030, 683.587 510.942, 681.959 509.038 C 680.332 507.134, 678.999 505.109, 678.998 504.538 C 678.996 503.967, 677.672 501.952, 676.056 500.061 C 674.439 498.169, 673.344 496.253, 673.621 495.803 C 673.899 495.354, 673.426 494.717, 672.569 494.388 C 671.712 494.059, 671.231 493.435, 671.500 493 C 671.769 492.565, 671.288 491.941, 670.431 491.612 C 669.574 491.283, 669.136 490.589, 669.458 490.069 C 669.779 489.548, 669.245 488.659, 668.271 488.092 C 667.297 487.525, 666.878 487.047, 667.339 487.030 C 667.800 487.014, 666.969 485.563, 665.491 483.806 C 664.013 482.050, 662.409 479.575, 661.926 478.306 C 661.444 477.038, 660.619 476, 660.092 476 C 659.566 476, 658.827 474.987, 658.451 473.750 C 658.075 472.512, 656.774 470.150, 655.560 468.500 C 654.346 466.850, 653.063 464.712, 652.708 463.750 C 652.353 462.788, 651.599 462, 651.031 462 C 650.464 462, 650 461.325, 650 460.500 C 650 459.675, 649.523 459, 648.941 459 C 648.359 459, 648.118 458.618, 648.406 458.151 C 648.695 457.685, 648.046 456.354, 646.965 455.193 C 645.884 454.033, 645 452.823, 645 452.503 C 645 451.541, 632.726 433.526, 631.824 433.165 C 631.364 432.980, 631.244 432.414, 631.557 431.908 C 631.870 431.401, 631.423 430.716, 630.563 430.386 C 629.704 430.056, 629 429.389, 629 428.904 C 629 428.420, 628.213 427.103, 627.250 425.979 C 626.288 424.855, 625.497 423.612, 625.494 423.218 C 625.484 421.992, 620.879 415, 620.082 415 C 619.667 415, 618.105 412.585, 616.611 409.633 C 615.118 406.681, 613.132 403.418, 612.198 402.383 C 611.264 401.347, 609.861 399.262, 609.081 397.750 C 608.301 396.237, 607.262 395, 606.772 395 C 606.282 395, 606.162 394.547, 606.504 393.993 C 606.847 393.439, 606.426 392.717, 605.569 392.388 C 604.712 392.059, 604.262 391.384, 604.569 390.888 C 604.876 390.392, 604.423 389.716, 603.563 389.386 C 602.704 389.056, 602 388.159, 602 387.393 C 602 386.627, 601.523 386, 600.941 386 C 600.359 386, 600.143 385.578, 600.462 385.061 C 600.781 384.545, 600.424 383.758, 599.669 383.311 C 598.913 382.865, 597.053 380.250, 595.534 377.500 C 594.016 374.750, 592.473 372.275, 592.105 372 C 590.642 370.906, 585 362.534, 585 361.458 C 585 360.827, 584.111 359.505, 583.024 358.521 C 581.937 357.538, 581.271 356.371, 581.545 355.928 C 581.818 355.485, 581.245 354.659, 580.271 354.092 C 579.297 353.525, 578.950 353.040, 579.500 353.015 C 580.050 352.990, 579.825 352.543, 579 352.021 C 578.175 351.500, 577.500 350.708, 577.500 350.263 C 577.500 349.818, 576.503 348.383, 575.285 347.075 C 574.066 345.767, 573.305 344.315, 573.594 343.849 C 573.882 343.382, 573.693 343, 573.173 343 C 572.653 343, 571.461 341.385, 570.525 339.411 C 569.588 337.437, 568.006 335.006, 567.009 334.009 C 566.013 333.013, 564.914 331.303, 564.567 330.210 C 564.220 329.117, 562.938 327.120, 561.718 325.772 C 560.498 324.424, 558.642 321.674, 557.593 319.661 C 556.543 317.647, 555.279 316, 554.784 316 C 554.288 316, 554.125 315.607, 554.422 315.126 C 554.719 314.645, 553.867 313.070, 552.529 311.626 C 551.191 310.182, 550.278 309, 550.500 309 C 550.722 309, 549.797 307.804, 548.442 306.343 C 547.088 304.882, 546.183 303.484, 546.430 303.237 C 546.677 302.989, 546.007 301.850, 544.940 300.705 C 543.873 299.560, 543 298.055, 543 297.361 C 543 296.667, 542.438 295.740, 541.750 295.300 C 540.287 294.364, 538.190 291.240, 537.354 288.750 C 537.031 287.788, 536.369 287, 535.883 287 C 535.398 287, 535 286.410, 535 285.689 C 535 284.967, 534.209 283.505, 533.243 282.439 C 532.276 281.372, 530.936 279.262, 530.264 277.750 C 529.593 276.238, 528.557 275, 527.962 275 C 527.368 275, 527.143 274.578, 527.462 274.061 C 527.781 273.545, 527.448 272.758, 526.721 272.311 C 524.916 271.203, 520.665 265.008, 521.682 264.968 C 522.132 264.951, 521.626 264.276, 520.559 263.468 C 519.491 262.661, 519.007 262, 519.483 262 C 519.959 262, 519.462 260.987, 518.379 259.750 C 517.295 258.512, 515.785 256.252, 515.023 254.727 C 514.261 253.202, 512.369 250.534, 510.819 248.797 C 509.268 247.061, 507.997 245.158, 507.993 244.570 C 507.990 243.981, 505.756 240.575, 503.030 237 C 500.303 233.425, 498.056 229.938, 498.036 229.250 C 498.016 228.563, 497.550 228, 497 228 C 496.450 228, 496 227.325, 496 226.500 C 496 225.675, 495.523 225, 494.941 225 C 494.359 225, 494.162 224.547, 494.504 223.993 C 494.847 223.439, 494.426 222.717, 493.569 222.388 C 492.712 222.059, 492.223 221.448, 492.482 221.029 C 492.741 220.610, 492.063 219.462, 490.976 218.479 C 489.889 217.495, 489 216.155, 489 215.500 C 489 214.845, 488.100 213.495, 487 212.500 C 485.900 211.505, 485 210.071, 485 209.314 C 485 208.557, 484.342 207.685, 483.538 207.376 C 482.734 207.068, 481.789 205.911, 481.439 204.807 C 480.434 201.640, 472.879 190, 471.829 190 C 471.308 190, 471.162 189.547, 471.504 188.993 C 471.847 188.439, 471.426 187.717, 470.569 187.388 C 469.712 187.059, 469.262 186.384, 469.569 185.888 C 469.876 185.392, 469.426 184.717, 468.569 184.388 C 467.712 184.059, 467.220 183.453, 467.475 183.040 C 467.731 182.627, 466.457 180.537, 464.646 178.395 C 462.835 176.253, 461.031 173.825, 460.637 173 C 458.477 168.472, 452.630 159.512, 451.305 158.700 C 450.587 158.260, 450 157.248, 450 156.450 C 450 155.653, 449.523 155, 448.941 155 C 448.359 155, 448.162 154.547, 448.504 153.993 C 448.847 153.439, 448.426 152.717, 447.569 152.388 C 446.712 152.059, 446.262 151.384, 446.569 150.888 C 446.876 150.392, 446.426 149.717, 445.569 149.388 C 444.712 149.059, 444.243 148.415, 444.527 147.957 C 444.810 147.498, 444.422 146.758, 443.665 146.311 C 442.908 145.865, 441.547 143.925, 440.642 142 C 439.736 140.075, 437.309 136.250, 435.248 133.500 C 433.187 130.750, 430.861 127.262, 430.081 125.750 C 429.301 124.237, 428.288 123, 427.831 123 C 427.374 123, 427 122.325, 427 121.500 C 427 120.675, 426.523 120, 425.941 120 C 425.359 120, 425.162 119.547, 425.504 118.993 C 425.847 118.439, 425.423 117.716, 424.563 117.386 C 423.704 117.056, 423 116.159, 423 115.393 C 423 114.627, 422.550 114, 422 114 C 421.450 114, 421 113.531, 421 112.958 C 421 112.385, 420.100 110.950, 419 109.770 C 417.900 108.589, 417 107.033, 417 106.311 C 417 105.590, 416.523 105, 415.941 105 C 415.359 105, 415.160 104.550, 415.500 104 C 415.840 103.450, 415.641 103, 415.059 103 C 414.477 103, 414 102.565, 414 102.034 C 414 100.891, 406.829 89.273, 404.562 86.745 C 403.071 85.081, 392.801 84.999, 207.745 85.187 C 100.360 85.296, 10.167 85.546, 7.316 85.743 M 654.250 86.144 C 653.563 86.835, 653 87.985, 653 88.700 C 653 89.415, 652.550 90, 652 90 C 651.450 90, 651 90.675, 651 91.500 C 651 92.325, 650.594 93, 650.098 93 C 649.602 93, 648.725 94.350, 648.150 96 C 647.575 97.650, 646.631 99, 646.052 99 C 645.473 99, 645 99.675, 645 100.500 C 645 101.325, 644.550 102, 644 102 C 643.450 102, 643 102.469, 643 103.042 C 643 103.615, 642.100 105.050, 641 106.230 C 639.900 107.411, 639 109.219, 639 110.248 C 639 111.276, 638.589 111.864, 638.086 111.553 C 637.584 111.243, 636.574 112.341, 635.842 113.994 C 635.110 115.647, 634.172 117, 633.756 117 C 633.340 117, 633 117.927, 633 119.059 C 633 120.191, 632.550 120.840, 632 120.500 C 631.450 120.160, 631 120.793, 631 121.906 C 631 123.019, 630.100 124.411, 629 125 C 627.900 125.589, 627 126.981, 627 128.094 C 627 129.207, 626.550 129.840, 626 129.500 C 625.450 129.160, 625 129.786, 625 130.891 C 625 131.996, 624.428 133.260, 623.729 133.700 C 623.030 134.140, 621.915 135.738, 621.250 137.250 C 620.586 138.762, 619.583 140, 619.021 140 C 618.460 140, 618 140.469, 618 141.042 C 618 141.615, 617.100 143.050, 616 144.230 C 614.900 145.411, 614 147.267, 614 148.355 C 614 149.443, 613.707 150.040, 613.349 149.682 C 612.455 148.788, 610.071 152.094, 610.032 154.281 C 610.014 155.261, 609.325 156.322, 608.500 156.638 C 607.675 156.955, 607 157.841, 607 158.607 C 607 159.373, 606.550 160, 606 160 C 605.450 160, 605 160.675, 605 161.500 C 605 162.325, 604.550 163, 604 163 C 603.450 163, 603 163.975, 603 165.167 C 603 166.358, 602.698 167.031, 602.329 166.662 C 601.560 165.893, 594.008 176.857, 594.003 178.750 C 594.001 179.438, 593.610 180, 593.133 180 C 591.908 180, 587 187.633, 587 189.538 C 587 190.407, 586.550 190.840, 586 190.500 C 585.450 190.160, 585 190.584, 585 191.441 C 585 192.298, 584.550 193, 584 193 C 583.450 193, 583 193.675, 583 194.500 C 583 195.325, 582.212 196.817, 581.250 197.815 C 580.288 198.813, 578.614 201.340, 577.530 203.430 C 576.447 205.521, 574.984 207.453, 574.280 207.723 C 573.576 207.993, 573 208.841, 573 209.607 C 573 210.373, 572.599 211, 572.108 211 C 571.618 211, 570.954 212.048, 570.633 213.328 C 570.311 214.608, 568.912 216.881, 567.524 218.379 C 566.136 219.877, 565 221.530, 565 222.052 C 565 222.573, 564.599 223, 564.108 223 C 563.618 223, 562.954 224.048, 562.633 225.328 C 562.311 226.608, 560.912 228.881, 559.524 230.379 C 558.136 231.877, 557 233.423, 557 233.815 C 557 235.025, 549.754 245.452, 548.316 246.311 C 547.569 246.758, 547.219 247.545, 547.538 248.061 C 547.857 248.578, 547.641 249, 547.059 249 C 546.477 249, 546 249.914, 546 251.031 C 546 252.149, 545.325 253.322, 544.500 253.638 C 543.675 253.955, 543 254.648, 543 255.178 C 543 255.709, 542.325 256.818, 541.500 257.643 C 539.769 259.373, 539.504 262, 541.059 262 C 541.641 262, 541.840 262.450, 541.500 263 C 541.160 263.550, 541.385 264, 542 264 C 542.615 264, 542.840 264.450, 542.500 265 C 542.160 265.550, 542.385 266, 543 266 C 543.615 266, 543.840 266.450, 543.500 267 C 543.160 267.550, 543.385 268, 544 268 C 544.615 268, 544.840 268.450, 544.500 269 C 544.160 269.550, 544.385 270, 545 270 C 545.615 270, 545.840 270.450, 545.500 271 C 545.160 271.550, 545.359 272, 545.941 272 C 546.523 272, 546.947 272.337, 546.882 272.750 C 546.551 274.847, 547.124 276.042, 548.155 275.405 C 548.856 274.971, 549.038 275.129, 548.618 275.809 C 548.238 276.424, 548.731 277.768, 549.714 278.797 C 550.696 279.825, 551.637 281.304, 551.805 282.083 C 551.973 282.863, 552.790 284.022, 553.622 284.659 C 554.453 285.296, 555.103 286.084, 555.067 286.409 C 554.878 288.082, 555.179 288.722, 557.250 291.047 C 558.487 292.437, 559.637 294.232, 559.805 295.037 C 559.973 295.842, 560.846 297.063, 561.746 297.750 C 562.646 298.438, 562.959 299.014, 562.441 299.032 C 561.924 299.049, 562.374 299.724, 563.441 300.532 C 564.509 301.339, 565.018 302, 564.572 302 C 563.744 302, 568.675 309.005, 570.283 310.112 C 570.771 310.448, 571.020 310.975, 570.835 311.282 C 570.651 311.589, 571.476 312.962, 572.669 314.334 C 573.862 315.706, 574.585 317.082, 574.276 317.391 C 573.967 317.700, 574.451 318.236, 575.351 318.581 C 576.252 318.927, 576.738 319.616, 576.431 320.112 C 576.124 320.608, 576.574 321.283, 577.431 321.612 C 578.288 321.941, 578.738 322.616, 578.431 323.112 C 578.124 323.608, 578.574 324.283, 579.431 324.612 C 580.288 324.941, 580.738 325.616, 580.431 326.112 C 580.124 326.608, 580.574 327.283, 581.431 327.612 C 582.288 327.941, 582.753 328.590, 582.466 329.055 C 582.179 329.519, 582.869 330.395, 584 331 C 585.131 331.605, 585.792 332.528, 585.469 333.050 C 585.146 333.573, 585.288 334, 585.784 334 C 586.279 334, 587.543 332.325, 588.593 330.277 C 589.642 328.230, 590.843 326.092, 591.262 325.527 C 591.681 324.962, 593.351 322.773, 594.972 320.662 C 596.594 318.551, 598.194 315.964, 598.528 314.912 C 599.121 313.043, 601.947 313, 725.567 313 C 814.690 313, 852 312.684, 852 311.930 C 852 311.342, 853.350 308.898, 855 306.500 C 856.650 304.102, 858 301.706, 858 301.177 C 858 300.647, 858.628 299.973, 859.396 299.678 C 860.164 299.384, 861.601 297.310, 862.589 295.071 C 863.577 292.832, 864.748 291, 865.192 291 C 865.637 291, 866 290.363, 866 289.583 C 866 288.804, 866.357 288.017, 866.793 287.833 C 867.229 287.650, 868.681 285.700, 870.020 283.500 C 871.359 281.300, 876.403 273.807, 881.228 266.848 C 886.052 259.889, 890 253.702, 890 253.098 C 890 252.494, 890.450 252, 891 252 C 891.550 252, 892 251.325, 892 250.500 C 892 249.675, 892.374 249, 892.831 249 C 893.288 249, 894.300 247.763, 895.079 246.250 C 895.859 244.738, 896.730 243.275, 897.014 243 C 898.991 241.091, 903 235.682, 903 234.923 C 903 234.366, 870.165 233.999, 820.250 233.999 C 774.737 233.998, 718.999 233.701, 696.386 233.338 C 649.258 232.583, 652.823 233.600, 660.180 223 C 662.280 219.975, 663.998 216.938, 663.999 216.250 C 663.999 215.563, 664.450 215, 665 215 C 665.550 215, 666 214.573, 666 214.052 C 666 213.530, 667.125 211.889, 668.500 210.405 C 669.875 208.922, 671 207.276, 671 206.748 C 671 206.220, 672.350 204.083, 674 202 C 675.650 199.917, 677 197.775, 677 197.242 C 677 196.708, 678.343 194.748, 679.984 192.886 C 681.625 191.023, 682.975 189.109, 682.984 188.632 C 682.993 188.155, 684.237 186.306, 685.750 184.525 C 690.446 178.993, 692 176.995, 692 176.489 C 692 176.220, 692.688 175.213, 693.530 174.250 C 694.371 173.287, 696.310 171.032, 697.838 169.237 L 700.616 165.975 852.362 165.994 C 955.663 166.006, 1004.730 165.680, 1006.054 164.971 C 1007.124 164.398, 1008 163.270, 1008 162.465 C 1008 161.659, 1008.450 161, 1009 161 C 1009.550 161, 1010 160.395, 1010 159.655 C 1010 158.915, 1010.900 157.495, 1012 156.500 C 1013.100 155.505, 1014 154.310, 1014 153.846 C 1014 153.382, 1018.275 146.868, 1023.500 139.370 C 1028.725 131.873, 1033 125.123, 1033 124.369 C 1033 123.616, 1033.460 123, 1034.021 123 C 1034.583 123, 1035.593 121.763, 1036.264 120.250 C 1036.936 118.737, 1038.204 116.705, 1039.083 115.733 C 1039.961 114.761, 1041.296 112.736, 1042.048 111.233 C 1042.800 109.730, 1044.819 106.700, 1046.533 104.500 C 1048.248 102.300, 1050.517 98.933, 1051.575 97.018 C 1052.634 95.103, 1054.033 92.963, 1054.684 92.262 C 1056.281 90.545, 1057.341 87.008, 1056.508 86.175 C 1056.137 85.804, 965.759 85.362, 855.667 85.194 C 696.011 84.950, 655.247 85.142, 654.250 86.144 M 470.324 366.250 C 469.544 367.479, 469.374 368.011, 469.125 370 C 469.056 370.550, 468.458 370.887, 467.795 370.750 C 467.133 370.613, 466.514 371.063, 466.420 371.750 C 466.327 372.438, 466.194 373.477, 466.125 374.059 C 466.056 374.641, 465.591 374.865, 465.091 374.556 C 464.591 374.247, 463.220 375.980, 462.045 378.408 C 460.870 380.835, 459.225 383.083, 458.391 383.404 C 457.556 383.724, 457.124 384.392, 457.431 384.888 C 457.738 385.384, 457.316 386.048, 456.494 386.364 C 455.672 386.679, 455 387.878, 455 389.028 C 455 390.177, 454.597 390.869, 454.105 390.565 C 453.096 389.941, 451.500 392.885, 451.125 396.059 C 451.056 396.641, 450.545 396.837, 449.988 396.493 C 449.426 396.146, 448.705 397.224, 448.367 398.917 C 448.031 400.595, 447.361 401.723, 446.878 401.425 C 446.395 401.126, 446 401.793, 446 402.906 C 446 404.019, 445.100 405.411, 444 406 C 442.900 406.589, 442 408.030, 442 409.202 C 442 410.374, 441.702 411.035, 441.337 410.670 C 440.692 410.025, 437.415 414.612, 437.252 416.388 C 437.207 416.877, 436.602 417.628, 435.906 418.058 C 435.210 418.488, 434.522 419.651, 434.376 420.643 C 434.231 421.634, 433.412 422.957, 432.556 423.583 C 431.700 424.209, 431 425.443, 431 426.325 C 431 427.208, 430.087 428.418, 428.972 429.015 C 427.857 429.612, 427.198 430.511, 427.508 431.014 C 427.819 431.516, 427.197 432.803, 426.126 433.874 C 425.055 434.945, 423.412 437.437, 422.475 439.411 C 421.539 441.385, 420.373 443, 419.886 443 C 419.399 443, 419 443.640, 419 444.423 C 419 445.206, 417.615 447.231, 415.923 448.923 C 414.231 450.615, 413.218 452.014, 413.673 452.030 C 414.128 452.047, 413.731 452.509, 412.792 453.057 C 411.749 453.665, 411.328 454.691, 411.711 455.690 C 412.132 456.786, 411.953 457.089, 411.170 456.605 C 410.417 456.140, 410 456.638, 410 458 C 410 459.165, 409.550 459.840, 409 459.500 C 408.450 459.160, 407.986 459.696, 407.968 460.691 C 407.928 463, 405.533 466.200, 404.568 465.234 C 404.164 464.831, 403.924 464.950, 404.035 465.500 C 404.467 467.641, 403.953 469.089, 402.975 468.485 C 402.412 468.136, 402.015 468.222, 402.094 468.676 C 402.448 470.718, 401.912 472.064, 400.975 471.485 C 400.412 471.136, 400.015 471.222, 400.094 471.676 C 400.464 473.806, 399.894 475.052, 398.845 474.405 C 398.210 474.012, 397.960 474.126, 398.289 474.658 C 399.076 475.932, 395.572 481.239, 394.591 480.258 C 394.174 479.841, 393.924 479.950, 394.035 480.500 C 394.486 482.733, 393.935 484.078, 392.845 483.405 C 392.144 482.971, 391.962 483.129, 392.382 483.809 C 392.762 484.424, 392.263 485.737, 391.273 486.727 C 388.221 489.779, 385 494.730, 385 496.369 C 385 497.227, 384.100 498.411, 383 499 C 381.900 499.589, 381 500.939, 381 502 C 381 503.061, 380.100 504.411, 379 505 C 377.900 505.589, 377 506.981, 377 508.094 C 377 509.207, 376.597 509.869, 376.105 509.565 C 375.231 509.024, 373.989 511.044, 373.408 513.951 C 373.248 514.749, 372.079 516.202, 370.809 517.179 C 369.539 518.156, 368.924 518.966, 369.441 518.978 C 369.959 518.990, 369.509 519.661, 368.441 520.468 C 367.374 521.276, 366.950 521.958, 367.500 521.984 C 368.113 522.012, 368.088 522.315, 367.434 522.765 C 365.765 523.916, 359.810 532.996, 360.702 533.030 C 361.141 533.047, 360.712 533.519, 359.750 534.080 C 358.788 534.641, 357.986 535.865, 357.968 536.800 C 357.928 538.925, 355.528 542.194, 354.651 541.318 C 354.293 540.960, 354 541.626, 354 542.798 C 354 543.970, 353.100 545.411, 352 546 C 350.900 546.589, 350 547.906, 350 548.928 C 350 549.950, 349.325 551.045, 348.500 551.362 C 347.675 551.678, 347 552.836, 347 553.933 C 347 555.031, 346.087 556.418, 344.972 557.015 C 343.857 557.612, 343.167 558.462, 343.441 558.904 C 343.714 559.346, 342.402 561.433, 340.526 563.542 C 338.650 565.651, 337.324 567.715, 337.579 568.128 C 337.835 568.542, 337.199 569.695, 336.166 570.690 C 333.704 573.063, 330.632 577.897, 330.346 579.851 C 330.220 580.704, 329.079 582.202, 327.809 583.179 C 326.539 584.156, 325.870 584.966, 326.323 584.978 C 326.775 584.990, 326.219 586.178, 325.086 587.618 C 323.954 589.057, 323.240 590.580, 323.500 591.001 C 323.761 591.422, 328.956 591.561, 335.046 591.310 C 341.673 591.037, 346.603 591.256, 347.325 591.855 C 348.627 592.936, 413.705 593.434, 416.441 592.384 C 417.299 592.055, 418 591.159, 418 590.393 C 418 589.627, 418.450 589, 419 589 C 419.550 589, 420 588.325, 420 587.500 C 420 586.675, 420.450 586, 421 586 C 421.550 586, 422 585.325, 422 584.500 C 422 583.675, 422.477 583, 423.059 583 C 423.641 583, 423.856 582.577, 423.537 582.060 C 423.217 581.542, 423.786 580.305, 424.800 579.310 C 427.784 576.382, 430.993 571.326, 430.304 570.637 C 429.953 570.287, 430.218 570, 430.892 570 C 431.566 570, 431.840 569.550, 431.500 569 C 431.160 568.450, 431.359 568, 431.941 568 C 432.523 568, 433 567.325, 433 566.500 C 433 565.675, 433.450 565, 434 565 C 434.550 565, 435 564.424, 435 563.721 C 435 563.017, 435.900 561.793, 437 561 C 438.100 560.207, 439 558.983, 439 558.279 C 439 557.576, 439.399 557, 439.886 557 C 440.373 557, 441.611 555.380, 442.636 553.400 C 447.025 544.922, 447.670 543.819, 448.608 543.177 C 450.383 541.962, 454 536.229, 454 534.631 C 454 533.773, 454.900 532.589, 456 532 C 457.100 531.411, 458 530.270, 458 529.465 C 458 528.659, 458.450 528, 459 528 C 459.550 528, 460 527.551, 460 527.002 C 460 526.454, 461.575 523.812, 463.500 521.133 C 465.425 518.453, 467 515.752, 467 515.131 C 467 514.509, 467.450 514, 468 514 C 468.550 514, 469 513.265, 469 512.367 C 469 511.469, 469.872 509.978, 470.938 509.054 C 472.004 508.130, 473.016 506.743, 473.188 505.974 C 473.359 505.204, 474.488 503.463, 475.696 502.105 C 476.905 500.747, 477.666 499.268, 477.387 498.818 C 477.109 498.368, 477.434 498, 478.108 498 C 478.782 498, 479.093 497.759, 478.798 497.465 C 478.504 497.171, 479.554 495.548, 481.132 493.859 C 482.709 492.170, 484 490.161, 484 489.394 C 484 488.627, 484.360 488, 484.799 488 C 485.239 488, 486.168 486.425, 486.864 484.500 C 487.560 482.575, 488.550 481, 489.065 481 C 489.579 481, 490.008 480.438, 490.017 479.750 C 490.027 479.063, 491.122 477.468, 492.452 476.208 C 493.782 474.947, 495.459 472.584, 496.179 470.958 C 496.899 469.331, 497.855 468, 498.303 468 C 498.751 468, 498.840 467.550, 498.500 467 C 498.160 466.450, 498.359 466, 498.941 466 C 499.523 466, 500 465.321, 500 464.490 C 500 463.660, 500.900 462.210, 502 461.268 C 503.100 460.326, 504 458.981, 504 458.278 C 504 457.575, 504.450 457, 505 457 C 505.550 457, 506 456.325, 506 455.500 C 506 454.675, 506.450 454, 507 454 C 507.550 454, 508 453.148, 508 452.107 C 508 451.066, 508.604 449.982, 509.342 449.699 C 510.081 449.415, 511.496 447.455, 512.487 445.342 C 513.478 443.229, 514.898 441.140, 515.644 440.700 C 516.390 440.260, 517 439.248, 517 438.450 C 517 437.653, 517.398 437, 517.883 437 C 519.933 437, 519.692 432.960, 517.502 430.597 C 516.241 429.236, 515.399 427.935, 515.629 427.704 C 515.860 427.474, 515.362 426.716, 514.524 426.020 C 513.686 425.324, 512.996 424.248, 512.990 423.628 C 512.985 423.007, 511.410 420.524, 509.490 418.109 C 507.571 415.694, 506 413.173, 506 412.505 C 506 411.838, 504.922 410.129, 503.605 408.708 C 502.288 407.286, 501.392 405.941, 501.615 405.718 C 501.838 405.496, 501.003 404.206, 499.760 402.853 C 498.517 401.500, 496.825 399.067, 496 397.446 C 495.175 395.826, 492.250 391.216, 489.500 387.202 C 486.750 383.188, 483.913 378.801, 483.195 377.452 C 482.478 376.103, 481.439 375, 480.886 375 C 480.334 375, 480.162 374.547, 480.504 373.993 C 480.847 373.439, 480.423 372.716, 479.563 372.386 C 478.704 372.056, 478 371.244, 478 370.581 C 478 369.510, 472.827 365, 471.600 365 C 471.335 365, 470.761 365.563, 470.324 366.250" stroke="none" fill="#14142c" fill-rule="evenodd"/></svg>